<svg class="animated" id="freepik_stories-retro-computer" xmlns="http://www.w3.org/2000/svg" viewBox="0 0 500 500" version="1.1" xmlns:xlink="http://www.w3.org/1999/xlink" xmlns:svgjs="http://svgjs.com/svgjs"><style>svg#freepik_stories-retro-computer:not(.animated) .animable {opacity: 0;}svg#freepik_stories-retro-computer.animated #freepik--Computer--inject-2 {animation: 1.5s Infinite  linear heartbeat;animation-delay: 0s;}svg#freepik_stories-retro-computer.animated #freepik--Documents--inject-2 {animation: 1.5s Infinite  linear shake;animation-delay: 0s;}svg#freepik_stories-retro-computer.animated #freepik--Tab--inject-2 {animation: 1.5s Infinite  linear floating;animation-delay: 0s;}            @keyframes heartbeat {                0% {                    transform: scale(1);                }                10% {                    transform: scale(1.1);                }                30% {                    transform: scale(1);                }                40% {                    transform: scale(1);                }                50% {                    transform: scale(1.1);                }                60% {                    transform: scale(1);                }                100% {                    transform: scale(1);                }            }                    @keyframes shake {                10%, 90% {                    transform: translate3d(-1px, 0, 0);                  }                  20%, 80% {                    transform: translate3d(2px, 0, 0);                  }                  30%, 50%, 70% {                    transform: translate3d(-4px, 0, 0);                  }                  40%, 60% {                    transform: translate3d(4px, 0, 0);                  }            }                    @keyframes floating {                0% {                    opacity: 1;                    transform: translateY(0px);                }                50% {                    transform: translateY(-10px);                }                100% {                    opacity: 1;                    transform: translateY(0px);                }            }        .animator-hidden { display: none; }</style><g id="freepik--background-complete--inject-2" class="animable animator-hidden" style="transform-origin: 250px 217.834px;"><g id="eloks039t1ei" class="animable" style="transform-origin: 250px 217.834px;"><g id="el5gbmlj4pqcg" class="animable" style="transform-origin: 250px 206.056px;"><g id="el6nuix8lphqn" class="animable" style="transform-origin: 249.333px 175.397px;"><path d="M443.92,312.896h-180.746c-3.232,0-5.862-2.63-5.862-5.862V43.76c0-3.232,2.63-5.862,5.862-5.862h180.746c3.232,0,5.862,2.629,5.862,5.862V307.033c0,3.233-2.63,5.862-5.862,5.862ZM263.174,38.148c-3.095,0-5.612,2.518-5.612,5.612V307.033c0,3.095,2.518,5.612,5.612,5.612h180.746c3.095,0,5.612-2.518,5.612-5.612V43.76c0-3.094-2.518-5.612-5.612-5.612h-180.746Z" style="fill: rgb(224, 224, 224); transform-origin: 353.547px 175.397px;" id="eleg6yo2efko" class="animable"></path><path d="M235.493,312.896H54.746c-3.232,0-5.862-2.63-5.862-5.862V43.76c0-3.232,2.629-5.862,5.862-5.862H235.493c3.232,0,5.862,2.629,5.862,5.862V307.033c0,3.233-2.63,5.862-5.862,5.862ZM54.746,38.148c-3.094,0-5.612,2.518-5.612,5.612V307.033c0,3.095,2.518,5.612,5.612,5.612H235.493c3.095,0,5.612-2.518,5.612-5.612V43.76c0-3.094-2.518-5.612-5.612-5.612H54.746Z" style="fill: rgb(224, 224, 224); transform-origin: 145.119px 175.397px;" id="elaq3zldgqs5c" class="animable"></path></g><rect x="0" y="373.965" width="500" height=".25" style="fill: rgb(224, 224, 224); transform-origin: 250px 374.09px;" id="elcebw3pvk9vm" class="animable"></rect></g><rect x="51.672" y="388.23" width="16.06" height=".25" style="fill: rgb(224, 224, 224); transform-origin: 59.702px 388.355px;" id="elebcgzgyt85o" class="animable"></rect><rect x="170.352" y="385.52" width="53.53" height=".25" style="fill: rgb(224, 224, 224); transform-origin: 197.117px 385.645px;" id="elxp2py93h75l" class="animable"></rect><rect x="68.732" y="397.52" width="36.25" height=".25" style="fill: rgb(224, 224, 224); transform-origin: 86.857px 397.645px;" id="el796yc6t6bx" class="animable"></rect><rect x="378.352" y="385.39" width="43.19" height=".25" style="fill: rgb(224, 224, 224); transform-origin: 399.947px 385.515px;" id="elp9o6doku1o" class="animable"></rect><rect x="430.452" y="385.39" width="6.33" height=".25" style="fill: rgb(224, 224, 224); transform-origin: 433.617px 385.515px;" id="elatev6c1fyd5" class="animable"></rect><rect x="316.212" y="391.62" width="53.89" height=".25" style="fill: rgb(224, 224, 224); transform-origin: 343.157px 391.745px;" id="el8hyssj9306n" class="animable"></rect></g><g id="el7xd0s0ib05o" class="animable" style="transform-origin: 109.747px 258.169px;"><g id="elsbf5odnher" class="animable" style="transform-origin: 106.473px 254.621px;"><path d="M104.555,326.326c-.03-.945-3.211-94.832-18.483-109.682-14.853-14.439-31.901-.537-32.617,.061l-1.531-1.835c.193-.163,19.432-15.867,35.816,.061,15.957,15.517,19.079,107.415,19.203,111.32l-2.388,.075Z" style="fill: rgb(224, 224, 224); transform-origin: 79.4335px 267.063px;" id="eln9upza7pdd8" class="animable"></path><path d="M105.866,344.777c-.11-1.122-10.437-112.711,30.315-159.48l1.802,1.568c-40.076,45.994-29.845,156.568-29.738,157.679l-2.378,.234Z" style="fill: rgb(224, 224, 224); transform-origin: 121.301px 265.038px;" id="elc1ezdqee71h" class="animable"></path><path d="M104.359,332.974l-2.385-.159c.084-1.265,7.976-126.861-21.917-154.355l1.618-1.76c30.73,28.266,23.027,151.059,22.684,156.273Z" style="fill: rgb(224, 224, 224); transform-origin: 92.7594px 254.837px;" id="eloq1anyu5fe" class="animable"></path><path d="M108.25,332.904l-2.39-.019c.029-3.459,.986-84.834,24.101-98.081,5.138-2.948,10.17-3.439,14.956-1.459,13.977,5.781,20.903,30.657,21.192,31.712l-2.306,.63c-.068-.248-6.907-24.803-19.802-30.134-4.065-1.678-8.387-1.235-12.851,1.323-21.934,12.57-22.892,95.194-22.899,96.027Z" style="fill: rgb(224, 224, 224); transform-origin: 135.984px 282.529px;" id="elato6jbu9de7" class="animable"></path><path d="M99.249,332.962l-2.385-.135c.036-.642,3.486-64.306-13.695-86.737-4.163-5.433-8.682-8.024-13.457-7.691-11.257,.787-20.698,17.261-20.792,17.427l-2.082-1.176c.41-.724,10.163-17.756,22.703-18.634,5.61-.399,10.84,2.507,15.524,8.623,17.721,23.134,14.335,85.675,14.182,88.324Z" style="fill: rgb(224, 224, 224); transform-origin: 73.2201px 284.471px;" id="ely4sdyvm7yqr" class="animable"></path><path d="M103.016,341.621c-.468-6.176-11.232-151.542,7.708-177.157l1.921,1.419c-18.415,24.908-7.358,174.053-7.245,175.556l-2.383,.182Z" style="fill: rgb(224, 224, 224); transform-origin: 106.097px 253.043px;" id="ellw8j0n7543a" class="animable"></path></g><path d="M150.068,248.078s-11.362,4.188-7.984,14.077c3.378,9.889,39.305,26.164,39.305,26.164,0,0,15.047-13.792,1.229-36.221-13.819-22.43-32.243-11.096-32.55-4.019Z" style="fill: rgb(235, 235, 235); transform-origin: 164.956px 263.59px;" id="ellpsajrad1sr" class="animable"></path><path d="M100.675,229.254s12.099-.507,12.787,9.921c.687,10.427-26.211,39.274-26.211,39.274,0,0-19.195-6.94-15.073-32.96,4.123-26.02,25.49-22.649,28.496-16.235Z" style="fill: rgb(235, 235, 235); transform-origin: 92.5364px 251.575px;" id="elvukmct7stq" class="animable"></path><path d="M90.432,179.341s8.066-.866,7.417-5.779c-.649-4.914-31.357-17.559-49.474,2.889,0,0,11.601,19.927,28.371,20.188,16.77,.261,13.687-17.298,13.687-17.298Z" style="fill: rgb(235, 235, 235); transform-origin: 73.1306px 180.908px;" id="elie86sjak1gc" class="animable"></path><path d="M105.463,167.409s-7.304,3.532-9.351-.982c-2.047-4.513,17.325-31.486,43.517-23.714,0,0,.694,23.048-13.401,32.138-14.094,9.091-20.765-7.442-20.765-7.442Z" style="fill: rgb(235, 235, 235); transform-origin: 117.799px 159.448px;" id="eluhmn6go1gm" class="animable"></path><path d="M67.272,244.103s5.567-4.495-.441-6.689c-6.008-2.194-35.487-1.571-35.794,27.631,0,0,34.334,5.705,38.584-5.418,4.25-11.123-2.349-15.524-2.349-15.524Z" style="fill: rgb(235, 235, 235); transform-origin: 51.0424px 251.575px;" id="elsr4cds2s588" class="animable"></path><path d="M137.285,178.609s-5.567-4.495,.441-6.689c6.008-2.194,35.487-1.571,35.794,27.631,0,0-34.334,5.706-38.584-5.418-4.25-11.123,2.348-15.524,2.348-15.524Z" style="fill: rgb(235, 235, 235); transform-origin: 153.515px 186.081px;" id="eldc5x4m5z2xd" class="animable"></path><path d="M119.134,202.132s-.49-5.464,3.921-3.322c4.411,2.142,19.779,18.721,3.849,34.454,0,0-21.444-15.882-17.579-24.152,3.865-8.27,9.808-6.979,9.808-6.979Z" style="fill: rgb(235, 235, 235); transform-origin: 121.414px 215.788px;" id="elhjmsv22rt1i" class="animable"></path><path d="M62.295,209.918s3.328-4.361-1.545-4.901c-4.874-.541-26.716,5.289-21.629,27.094,0,0,26.609-2,27.749-11.058,1.141-9.058-4.575-11.135-4.575-11.135Z" style="fill: rgb(235, 235, 235); transform-origin: 52.6894px 218.547px;" id="el3z3j7wa9s5v" class="animable"></path><polygon points="130.619 375.023 76.947 375.023 62.671 309.174 143.54 309.174 130.619 375.023" style="fill: rgb(240, 240, 240); transform-origin: 103.105px 342.099px;" id="el8sq4u9oyyhj" class="animable"></polygon><rect x="57.802" y="308.221" width="90.396" height="18.936" style="fill: rgb(230, 230, 230); transform-origin: 103px 317.689px;" id="el9ffd0xu9xy" class="animable"></rect></g><g id="elkzm8ou63mip" class="animable" style="transform-origin: 364.353px 117.446px;"><rect x="322.308" y="47.954" width="108.326" height="138.984" style="fill: rgb(230, 230, 230); transform-origin: 376.471px 117.446px;" id="elros68n1ndmn" class="animable"></rect><rect x="298.072" y="47.954" width="127.247" height="138.984" style="fill: rgb(240, 240, 240); transform-origin: 361.695px 117.446px;" id="elxz53mjg91dq" class="animable"></rect><rect x="309.804" y="60.298" width="103.23" height="114.294" style="fill: rgb(255, 255, 255); transform-origin: 361.419px 117.445px;" id="eldz9b3ekvets" class="animable"></rect><rect x="343.713" y="96.817" width="37.264" height="41.257" style="fill: rgb(240, 240, 240); transform-origin: 362.345px 117.445px;" id="elbz8ipgad0ze" class="animable"></rect></g></g><g id="freepik--Shadow--inject-2" class="animable" style="transform-origin: 250.599px 435.988px;"><ellipse cx="250.599" cy="435.988" rx="223.432" ry="12.388" style="fill: rgb(245, 245, 245); transform-origin: 250.599px 435.988px;" id="el3ofqtlj1ymv" class="animable"></ellipse></g><g id="freepik--Computer--inject-2" class="animable" style="transform-origin: 249.958px 252.01px;"><g id="elr5quicp2bg" class="animable" style="transform-origin: 249.958px 252.01px;"><rect x="115.863" y="82.466" width="269.13" height="226.166" style="fill: #00FF88; transform-origin: 250.428px 195.549px;" id="elu9fxh88us2e" class="animable"></rect><rect x="145.185" y="113.735" width="209.546" height="162.591" style="fill: rgb(38, 50, 56); transform-origin: 249.958px 195.031px;" id="elrgfvlk66djh" class="animable"></rect><rect x="183.13" y="308.632" width="139.595" height="22.58" style="fill: #00FF88; transform-origin: 252.928px 319.922px;" id="elu3wapqhqku" class="animable"></rect><rect x="165.937" y="331.211" width="173.98" height="14.261" style="fill: #00FF88; transform-origin: 252.927px 338.341px;" id="elszb70b10n1" class="animable"></rect><rect x="108.324" y="345.472" width="283.268" height="76.082" style="fill: #00FF88; transform-origin: 249.958px 383.513px;" id="elr2vqs4ykz9t" class="animable"></rect><path d="M229.295,372.858H117.227v-15.315h112.068v15.315Zm-111.318-.75h110.568v-13.815H117.977v13.815Z" style="fill: rgb(38, 50, 56); transform-origin: 173.261px 365.201px;" id="elzw7uuzv83kn" class="animable"></path><g id="elwrmcnihv3e"><rect x="210.194" y="376.698" width="18.726" height="6.521" rx="3.048" ry="3.048" style="opacity: 0.4; transform-origin: 219.557px 379.958px;" class="animable" id="elhzx4qjs1rut"></rect></g><g id="elgqvmx5qmn4i"><circle cx="202.11" cy="379.958" r="2.967" style="fill: rgb(255, 255, 255); opacity: 0.4; transform-origin: 202.11px 379.958px;" class="animable" id="eli1ok2mkpvzp"></circle></g><g id="eledkeqi1mzbg"><rect x="295.269" y="362.049" width="89.297" height="6.304" style="opacity: 0.4; transform-origin: 339.918px 365.201px;" class="animable" id="el260ti7k51ek"></rect></g><g id="elbgnhmwrbal6"><rect x="367.827" y="373.72" width="16.739" height="5.955" style="fill: rgb(255, 255, 255); opacity: 0.4; transform-origin: 376.197px 376.698px;" class="animable" id="el3ere5ssw712"></rect></g><g id="elzw6odpl1p7b"><path d="M346.864,405.611c0,1.424-1.155,2.579-2.579,2.579s-2.579-1.155-2.579-2.579,1.155-2.579,2.579-2.579,2.579,1.155,2.579,2.579Z" style="opacity: 0.4; transform-origin: 344.285px 405.611px;" class="animable" id="el1jvkp69sk1r"></path></g><g id="el1yglq0osck9"><path d="M353.838,405.611c0,1.424-1.155,2.579-2.579,2.579s-2.579-1.155-2.579-2.579,1.155-2.579,2.579-2.579,2.579,1.155,2.579,2.579Z" style="opacity: 0.4; transform-origin: 351.259px 405.611px;" class="animable" id="elsmv17jjxe6s"></path></g><g id="elsf9kdpuungc"><path d="M360.812,405.611c0,1.424-1.155,2.579-2.579,2.579s-2.579-1.155-2.579-2.579,1.155-2.579,2.579-2.579,2.579,1.155,2.579,2.579Z" style="opacity: 0.4; transform-origin: 358.233px 405.611px;" class="animable" id="el8vbkym0aa6"></path></g><g id="eln3iyxzv9hq"><path d="M368.32,399.934c3.135-3.135,8.218-3.135,11.354,0,3.135,3.135,3.135,8.219,0,11.354-3.135,3.135-8.218,3.135-11.354,0-3.135-3.135-3.135-8.218,0-11.354Z" style="opacity: 0.4; transform-origin: 373.997px 405.611px;" class="animable" id="elq8uj67c2ke"></path></g><g id="elk9rpbn9o3wq"><rect x="165.937" y="331.211" width="173.98" height="14.261" style="opacity: 0.4; transform-origin: 252.927px 338.341px;" class="animable" id="elfizkh0wo2"></rect></g><g id="elkr77j9gnqc"><rect x="119.417" y="397.537" width=".75" height="10.348" style="opacity: 0.4; transform-origin: 119.792px 402.711px;" class="animable" id="el7l2tjiv3s6j"></rect></g><g id="el75g7reib0bn"><rect x="123.105" y="397.537" width=".75" height="10.348" style="opacity: 0.4; transform-origin: 123.48px 402.711px;" class="animable" id="elmm0f262k5ce"></rect></g><g id="elicqmcw1itv9"><rect x="126.794" y="397.537" width=".75" height="10.348" style="opacity: 0.4; transform-origin: 127.169px 402.711px;" class="animable" id="el89f5ooykv99"></rect></g><g id="el4lg1cl904qs"><rect x="130.483" y="397.537" width=".75" height="10.348" style="opacity: 0.4; transform-origin: 130.858px 402.711px;" class="animable" id="elaafcttap3nm"></rect></g><g id="el31pl3zevs43"><rect x="134.171" y="397.537" width=".75" height="10.348" style="opacity: 0.4; transform-origin: 134.546px 402.711px;" class="animable" id="el79iqislxiux"></rect></g><g id="elfkndzm1byle"><rect x="137.86" y="397.537" width=".75" height="10.348" style="opacity: 0.4; transform-origin: 138.235px 402.711px;" class="animable" id="eldg44h113z1h"></rect></g><g id="ela11uem36u7"><rect x="141.549" y="397.537" width=".75" height="10.348" style="opacity: 0.4; transform-origin: 141.924px 402.711px;" class="animable" id="elhzrl2nu7yvr"></rect></g><g id="elk4ns6qsmjpi"><rect x="145.237" y="397.537" width=".75" height="10.348" style="opacity: 0.4; transform-origin: 145.612px 402.711px;" class="animable" id="eli4lx9gfqpd"></rect></g><g id="elf99heh4mkr"><rect x="148.926" y="397.537" width=".75" height="10.348" style="opacity: 0.4; transform-origin: 149.301px 402.711px;" class="animable" id="elhxlg6pc8zin"></rect></g><g id="el9bstz4b7dx7"><rect x="152.615" y="397.537" width=".75" height="10.348" style="opacity: 0.4; transform-origin: 152.99px 402.711px;" class="animable" id="elppv6tm4me1"></rect></g><g id="elzz5sxrmm78e"><rect x="156.303" y="397.537" width=".75" height="10.348" style="opacity: 0.4; transform-origin: 156.678px 402.711px;" class="animable" id="eld00w1hsab6"></rect></g><g id="el2rytnsxm5e6"><rect x="159.992" y="397.537" width=".75" height="10.348" style="opacity: 0.4; transform-origin: 160.367px 402.711px;" class="animable" id="eliz0s2robm1"></rect></g><g id="elj6un450kgog"><rect x="163.681" y="397.537" width=".75" height="10.348" style="opacity: 0.4; transform-origin: 164.056px 402.711px;" class="animable" id="elvpbcxuezoc"></rect></g><g id="el28voqnw7m56"><rect x="167.37" y="397.537" width=".75" height="10.348" style="opacity: 0.4; transform-origin: 167.745px 402.711px;" class="animable" id="el3wecbkeeivj"></rect></g><g id="elpzmfh59w8u"><rect x="171.058" y="397.537" width=".75" height="10.348" style="opacity: 0.4; transform-origin: 171.433px 402.711px;" class="animable" id="elahynezkpgdm"></rect></g><g id="el7qd1lao9axl"><rect x="174.747" y="397.537" width=".75" height="10.348" style="opacity: 0.4; transform-origin: 175.122px 402.711px;" class="animable" id="eldll4hcachj"></rect></g><g id="elib95gk7pvhp"><rect x="178.436" y="397.537" width=".75" height="10.348" style="opacity: 0.4; transform-origin: 178.811px 402.711px;" class="animable" id="elhw1mhhauwf"></rect></g><g id="ela3genvvt0gv"><rect x="182.124" y="397.537" width=".75" height="10.348" style="opacity: 0.4; transform-origin: 182.499px 402.711px;" class="animable" id="eld3b6kvvhix"></rect></g><g id="elx8t71mgrp6"><rect x="185.813" y="397.537" width=".75" height="10.348" style="opacity: 0.4; transform-origin: 186.188px 402.711px;" class="animable" id="el8nu9g8lhiyv"></rect></g><g id="el28k5onwfbnr"><rect x="189.501" y="397.537" width=".75" height="10.348" style="opacity: 0.4; transform-origin: 189.876px 402.711px;" class="animable" id="elzn6se9zgger"></rect></g><g id="el9vdjzrhhcbk"><rect x="193.19" y="397.537" width=".75" height="10.348" style="opacity: 0.4; transform-origin: 193.565px 402.711px;" class="animable" id="el3ckv80repf3"></rect></g><g id="elv2fajsmw1b"><rect x="196.879" y="397.537" width=".75" height="10.348" style="opacity: 0.4; transform-origin: 197.254px 402.711px;" class="animable" id="elcjidbq1rms9"></rect></g><g id="elck88zlpbx3l"><rect x="200.567" y="397.537" width=".75" height="10.348" style="opacity: 0.4; transform-origin: 200.942px 402.711px;" class="animable" id="ele7749jj6p38"></rect></g><g id="ellfqjak4ymms"><rect x="204.256" y="397.537" width=".75" height="10.348" style="opacity: 0.4; transform-origin: 204.631px 402.711px;" class="animable" id="ela6f6wg76gje"></rect></g><g id="el7g98idcuzpk"><rect x="207.945" y="397.537" width=".75" height="10.348" style="opacity: 0.4; transform-origin: 208.32px 402.711px;" class="animable" id="el51vza7bj87c"></rect></g><g id="elwe3ks1ms6f"><rect x="211.634" y="397.537" width=".75" height="10.348" style="opacity: 0.4; transform-origin: 212.009px 402.711px;" class="animable" id="el3n9kriynh7r"></rect></g><g id="elbfujpp2iumk"><rect x="215.322" y="397.537" width=".75" height="10.348" style="opacity: 0.4; transform-origin: 215.697px 402.711px;" class="animable" id="elc95jxl5jbrk"></rect></g><g id="elq2ddnlrkph8"><rect x="219.011" y="397.537" width=".75" height="10.348" style="opacity: 0.4; transform-origin: 219.386px 402.711px;" class="animable" id="eljpea3if3e9"></rect></g><g id="eli7j5aid741p"><rect x="222.7" y="397.537" width=".75" height="10.348" style="opacity: 0.4; transform-origin: 223.075px 402.711px;" class="animable" id="elpms756hu4c"></rect></g><g id="elxa06iv3s4qe"><rect x="226.388" y="397.537" width=".75" height="10.348" style="opacity: 0.4; transform-origin: 226.763px 402.711px;" class="animable" id="el4oqyvx3zzo7"></rect></g><g id="elw9c5o0lolv"><rect x="230.077" y="397.537" width=".75" height="10.348" style="opacity: 0.4; transform-origin: 230.452px 402.711px;" class="animable" id="el4bl5xniybbr"></rect></g><g id="elcaeuk6smhhk"><polygon points="183.13 308.632 322.724 308.632 322.724 316.241 183.175 315.954 183.13 308.632" style="opacity: 0.4; transform-origin: 252.927px 312.436px;" class="animable" id="elz8tn89di8v"></polygon></g><g id="elc441nmae9od"><polygon points="145.185 276.325 137.286 282.329 362.63 282.329 354.731 276.325 145.185 276.325" style="opacity: 0.4; transform-origin: 249.958px 279.327px;" class="animable" id="elpgjnek464z"></polygon></g><g id="eltp6w158nd19"><polygon points="354.731 113.735 362.63 106.23 137.286 106.23 145.185 113.735 354.731 113.735" style="opacity: 0.4; transform-origin: 249.958px 109.983px;" class="animable" id="eld2fuvd6fjl"></polygon></g><g id="el69c5bbqjruk"><polygon points="354.731 276.325 362.63 282.329 362.63 106.23 354.731 113.735 354.731 276.325" style="fill: rgb(255, 255, 255); opacity: 0.4; transform-origin: 358.68px 194.28px;" class="animable" id="elqta01inzpq"></polygon></g><g id="elg0gfqfkdqet"><polygon points="145.185 276.325 137.286 282.329 137.286 106.23 145.185 113.735 145.185 276.325" style="fill: rgb(255, 255, 255); opacity: 0.4; transform-origin: 141.235px 194.28px;" class="animable" id="elybin7iwk0y"></polygon></g><g id="elg4uuaimcr1r"><path d="M152.99,118.853c-.778,1.751-5.644,147.708,0,150.627,5.644,2.919,191.519,4.087,195.204,2.335s2.973-149.219-1.947-152.532c-5.742-3.867-193.258-.431-193.258-.431Z" style="fill: rgb(255, 255, 255); opacity: 0.2; transform-origin: 250.412px 195.042px;" class="animable" id="el7r3e23344c9"></path></g><path d="M384.938,368.728h-90.044v-6.862h90.115l-.071,6.862Zm-89.294-.75h88.552l.056-5.362h-88.607v5.362Z" style="fill: rgb(38, 50, 56); transform-origin: 339.951px 365.297px;" id="elmwxvysg1lup" class="animable"></path><g id="elgeodxsnguj6"><rect x="108.324" y="390.945" width="283.268" height=".75" style="opacity: 0.4; transform-origin: 249.958px 391.32px;" class="animable" id="ely4c6c2wjvob"></rect></g></g></g><g id="freepik--Documents--inject-2" class="animable" style="transform-origin: 253.104px 194.733px;"><g id="elptn5d1czwcn" class="animable" style="transform-origin: 178.811px 165.493px;"><g id="elj24fdn5rml" class="animable" style="transform-origin: 178.811px 165.493px;"><g id="elbcmq6lqogc8" class="animable" style="transform-origin: 178.811px 165.494px;"><polygon points="192.642 181.957 164.979 181.957 164.979 149.031 187.441 149.031 192.642 154.454 192.642 181.957" style="fill: rgb(255, 255, 255); transform-origin: 178.811px 165.494px;" id="elp3ojm7ddgwm" class="animable"></polygon><path d="M193.017,182.332h-28.412v-33.676h22.997l5.416,5.647v28.029Zm-27.662-.75h26.912v-26.977l-4.986-5.199h-21.926v32.176Z" id="elquw1sxat6k" class="animable" style="transform-origin: 178.811px 165.494px;"></path></g><g id="elubvrenismnk" class="animable" style="transform-origin: 189.947px 151.742px;"><polygon points="187.251 149.031 187.251 154.4 192.642 154.454 187.251 149.031" style="fill: rgb(255, 255, 255); transform-origin: 189.947px 151.743px;" id="eltisnnvuwgv" class="animable"></polygon><path d="M192.642,154.829h-.004l-5.391-.054c-.206-.002-.371-.169-.371-.375v-5.37c0-.152,.092-.289,.232-.347,.141-.057,.302-.026,.409,.083l5.391,5.423c.107,.108,.139,.27,.08,.41-.059,.139-.195,.229-.346,.229Zm-5.016-.8l4.105,.041-4.105-4.13v4.089Z" id="elvqcb6ald0t" class="animable" style="transform-origin: 189.947px 151.742px;"></path></g></g><g id="el6rmrq3cpcfb" class="animable" style="transform-origin: 178.811px 165.943px;"><rect x="170.567" y="157.383" width="16.487" height=".75" id="el1bxt8rjqnvh" class="animable" style="transform-origin: 178.811px 157.758px;"></rect><rect x="170.567" y="159.722" width="16.487" height=".75" id="elc70iluvd1j8" class="animable" style="transform-origin: 178.811px 160.097px;"></rect><rect x="170.567" y="162.061" width="9.635" height=".75" id="elc1kjyyk6dxh" class="animable" style="transform-origin: 175.385px 162.436px;"></rect><rect x="170.567" y="164.399" width="16.487" height=".75" id="elfd6ehcmr6wv" class="animable" style="transform-origin: 178.811px 164.774px;"></rect><rect x="170.567" y="166.738" width="16.487" height=".75" id="el8mr2ft5d46f" class="animable" style="transform-origin: 178.811px 167.113px;"></rect><rect x="170.567" y="169.077" width="16.487" height=".75" id="elwv6ju30dp1d" class="animable" style="transform-origin: 178.811px 169.452px;"></rect><rect x="170.567" y="171.415" width="16.487" height=".75" id="elmp0ac33eue" class="animable" style="transform-origin: 178.811px 171.79px;"></rect><rect x="170.567" y="173.754" width="8.244" height=".75" id="elr161tbfeqqa" class="animable" style="transform-origin: 174.689px 174.129px;"></rect></g></g><g id="elinpx1v3riwl" class="animable" style="transform-origin: 295.269px 146.712px;"><g id="elgfeliffmmg7" class="animable" style="transform-origin: 295.269px 146.712px;"><g id="el7ddlv3dy92e" class="animable" style="transform-origin: 295.269px 146.712px;"><polygon points="309.1 163.176 281.438 163.176 281.438 130.249 303.899 130.249 309.1 135.672 309.1 163.176" style="fill: rgb(255, 255, 255); transform-origin: 295.269px 146.712px;" id="eldwj4v8yz4b" class="animable"></polygon><path d="M309.475,163.55h-28.412v-33.676h22.997l5.415,5.647v28.029Zm-27.662-.75h26.912v-26.977l-4.985-5.199h-21.927v32.176Z" id="elguw7qoyzi1e" class="animable" style="transform-origin: 295.269px 146.712px;"></path></g><g id="el50ca93d3qt9" class="animable" style="transform-origin: 306.404px 132.961px;"><polygon points="303.709 130.249 303.709 135.619 309.1 135.672 303.709 130.249" style="fill: rgb(255, 255, 255); transform-origin: 306.405px 132.96px;" id="elxka7q89yef" class="animable"></polygon><path d="M309.1,136.047h-.004l-5.391-.053c-.205-.002-.371-.169-.371-.375v-5.37c0-.152,.092-.289,.232-.347,.141-.057,.303-.025,.408,.083l5.391,5.423c.107,.108,.139,.27,.08,.41-.059,.139-.195,.229-.346,.229Zm-5.016-.799l4.105,.041-4.105-4.13v4.089Z" id="elgz26jo7lrr" class="animable" style="transform-origin: 306.404px 132.961px;"></path></g></g><g id="eljda99klpot" class="animable" style="transform-origin: 295.268px 147.162px;"><rect x="287.025" y="138.602" width="16.487" height=".75" id="elhc92700j4ki" class="animable" style="transform-origin: 295.268px 138.977px;"></rect><rect x="287.025" y="140.94" width="16.487" height=".75" id="elqqzzwczt16" class="animable" style="transform-origin: 295.268px 141.315px;"></rect><rect x="287.025" y="143.279" width="9.635" height=".75" id="elib6w7mtxfu" class="animable" style="transform-origin: 291.842px 143.654px;"></rect><rect x="287.025" y="145.618" width="16.487" height=".75" id="elnsxr4k4uohl" class="animable" style="transform-origin: 295.268px 145.993px;"></rect><rect x="287.025" y="147.957" width="16.487" height=".75" id="elvkl3c7n81d" class="animable" style="transform-origin: 295.268px 148.332px;"></rect><rect x="287.025" y="150.295" width="16.487" height=".75" id="elsn0wdozxf7a" class="animable" style="transform-origin: 295.268px 150.67px;"></rect><rect x="287.025" y="152.634" width="16.487" height=".75" id="el4esqylxw4j4" class="animable" style="transform-origin: 295.268px 153.009px;"></rect><rect x="287.025" y="154.972" width="8.243" height=".75" id="elkjc761tfoj" class="animable" style="transform-origin: 291.147px 155.347px;"></rect></g></g><g id="elnxn9q20q64" class="animable" style="transform-origin: 313.447px 225.57px;"><g id="elcvulp82zxr4" class="animable" style="transform-origin: 313.447px 225.57px;"><g id="el8n8siiuvn53" class="animable" style="transform-origin: 313.447px 225.57px;"><polygon points="327.278 242.033 299.616 242.033 299.616 209.107 322.077 209.107 327.278 214.53 327.278 242.033" style="fill: rgb(255, 255, 255); transform-origin: 313.447px 225.57px;" id="ells6ro04zwwg" class="animable"></polygon><path d="M327.653,242.408h-28.413v-33.676h22.997l5.416,5.647v28.029Zm-27.663-.75h26.913v-26.977l-4.986-5.199h-21.927v32.176Z" id="ellqk7jfnt5uf" class="animable" style="transform-origin: 313.447px 225.57px;"></path></g><g id="elnjlyb0f89ba" class="animable" style="transform-origin: 324.582px 211.818px;"><polygon points="321.887 209.107 321.887 214.476 327.278 214.53 321.887 209.107" style="fill: rgb(255, 255, 255); transform-origin: 324.583px 211.818px;" id="elxbi1wpn40k" class="animable"></polygon><path d="M327.278,214.905h-.004l-5.391-.054c-.205-.002-.371-.169-.371-.375v-5.37c0-.152,.092-.289,.232-.347,.141-.057,.302-.025,.408,.083l5.391,5.423c.107,.108,.139,.27,.08,.41-.059,.139-.195,.229-.346,.229Zm-5.016-.8l4.105,.041-4.105-4.13v4.089Z" id="elx9txfn89j59" class="animable" style="transform-origin: 324.582px 211.818px;"></path></g></g><g id="el710l2vede1v" class="animable" style="transform-origin: 313.447px 226.019px;"><rect x="305.203" y="217.459" width="16.487" height=".75" id="el96mgsysi09q" class="animable" style="transform-origin: 313.446px 217.834px;"></rect><rect x="305.203" y="219.797" width="16.487" height=".75" id="elqt4a3p3fz2r" class="animable" style="transform-origin: 313.446px 220.172px;"></rect><rect x="305.203" y="222.136" width="9.635" height=".75" id="el3n7rzcjfetg" class="animable" style="transform-origin: 310.02px 222.511px;"></rect><rect x="305.203" y="224.475" width="16.487" height=".75" id="eleiomrtgp5x" class="animable" style="transform-origin: 313.446px 224.85px;"></rect><rect x="305.203" y="226.813" width="16.487" height=".75" id="eluujqul2uro" class="animable" style="transform-origin: 313.446px 227.188px;"></rect><rect x="305.203" y="229.152" width="16.487" height=".75" id="eluxyh6fw55c" class="animable" style="transform-origin: 313.446px 229.527px;"></rect><rect x="305.203" y="231.491" width="16.487" height=".75" id="elxc0waki2db" class="animable" style="transform-origin: 313.446px 231.866px;"></rect><rect x="305.203" y="233.829" width="8.244" height=".75" id="el8b28jzy6yd" class="animable" style="transform-origin: 309.325px 234.204px;"></rect></g></g><g id="elvxg5tnewona" class="animable" style="transform-origin: 327.397px 240.414px;"><g id="eltb8c2grcfme" class="animable" style="transform-origin: 327.397px 240.414px;"><g id="el6rtj79hf9kq" class="animable" style="transform-origin: 327.397px 240.414px;"><polygon points="341.227 256.877 313.565 256.877 313.565 223.951 336.027 223.951 341.227 229.374 341.227 256.877" style="fill: rgb(255, 255, 255); transform-origin: 327.396px 240.414px;" id="el8qu8s8p4gct" class="animable"></polygon><path d="M341.603,257.252h-28.412v-33.676h22.997l5.415,5.647v28.029Zm-27.662-.75h26.912v-26.977l-4.985-5.199h-21.927v32.176Z" id="elkmoq4myondg" class="animable" style="transform-origin: 327.397px 240.414px;"></path></g><g id="elej7icj6qp7" class="animable" style="transform-origin: 338.532px 226.662px;"><polygon points="335.837 223.951 335.837 229.32 341.227 229.374 335.837 223.951" style="fill: rgb(255, 255, 255); transform-origin: 338.532px 226.662px;" id="elfi6lu1a59js" class="animable"></polygon><path d="M341.228,229.749h-.004l-5.391-.054c-.205-.002-.371-.169-.371-.375v-5.37c0-.152,.092-.289,.232-.347,.141-.057,.303-.025,.408,.083l5.391,5.423c.107,.108,.139,.27,.08,.41-.059,.139-.195,.229-.346,.229Zm-5.016-.8l4.105,.041-4.105-4.13v4.089Z" id="elgezaju0udar" class="animable" style="transform-origin: 338.532px 226.662px;"></path></g></g><g id="elfslaly6x87" class="animable" style="transform-origin: 327.396px 240.863px;"><rect x="319.152" y="232.303" width="16.487" height=".75" id="eld6by7pqjknk" class="animable" style="transform-origin: 327.395px 232.678px;"></rect><rect x="319.152" y="234.642" width="16.487" height=".75" id="elnn6swtfg0a" class="animable" style="transform-origin: 327.395px 235.017px;"></rect><rect x="319.152" y="236.98" width="9.635" height=".75" id="elrqcykhns4sq" class="animable" style="transform-origin: 323.969px 237.355px;"></rect><rect x="319.152" y="239.319" width="16.487" height=".75" id="elag57uou38vn" class="animable" style="transform-origin: 327.395px 239.694px;"></rect><rect x="319.152" y="241.658" width="16.487" height=".75" id="ely5741ucvwzs" class="animable" style="transform-origin: 327.395px 242.033px;"></rect><rect x="319.152" y="243.996" width="16.487" height=".75" id="elluuadjt7jvc" class="animable" style="transform-origin: 327.395px 244.371px;"></rect><rect x="319.152" y="246.335" width="16.487" height=".75" id="elav1bm92oxuf" class="animable" style="transform-origin: 327.395px 246.71px;"></rect><rect x="319.152" y="248.674" width="8.244" height=".75" id="el6ecxbhjbtq9" class="animable" style="transform-origin: 323.274px 249.049px;"></rect></g></g><g id="elrlj5lpgrxi8" class="animable" style="transform-origin: 260.012px 242.753px;"><g id="elc1hveg0gxx" class="animable" style="transform-origin: 260.012px 242.753px;"><g id="eln91tky18pb" class="animable" style="transform-origin: 260.012px 242.753px;"><polygon points="273.843 259.216 246.18 259.216 246.18 226.289 268.642 226.289 273.843 231.712 273.843 259.216" style="fill: rgb(255, 255, 255); transform-origin: 260.011px 242.753px;" id="elpc9lxui4jh9" class="animable"></polygon><path d="M274.218,259.591h-28.412v-33.676h22.997l5.415,5.647v28.029Zm-27.662-.75h26.912v-26.978l-4.985-5.199h-21.927v32.176Z" id="elnq0j2z8zjk" class="animable" style="transform-origin: 260.012px 242.753px;"></path></g><g id="el67pvurfgn1" class="animable" style="transform-origin: 271.147px 229.001px;"><polygon points="268.452 226.289 268.452 231.659 273.843 231.712 268.452 226.289" style="fill: rgb(255, 255, 255); transform-origin: 271.147px 229.001px;" id="elem5o2rs1kv5" class="animable"></polygon><path d="M273.843,232.087h-.004l-5.391-.053c-.205-.002-.371-.169-.371-.375v-5.37c0-.152,.092-.289,.232-.347,.141-.057,.303-.025,.408,.083l5.391,5.423c.107,.108,.139,.27,.08,.41-.059,.139-.195,.229-.346,.229Zm-5.016-.799l4.105,.041-4.105-4.13v4.089Z" id="el7x3bm8ngz5k" class="animable" style="transform-origin: 271.147px 229.001px;"></path></g></g><g id="elelz9vtacyk" class="animable" style="transform-origin: 260.012px 243.202px;"><rect x="251.768" y="234.642" width="16.488" height=".75" id="elbkabwq5tbuv" class="animable" style="transform-origin: 260.012px 235.017px;"></rect><rect x="251.768" y="236.98" width="16.488" height=".75" id="elnuh26eev8h9" class="animable" style="transform-origin: 260.012px 237.355px;"></rect><rect x="251.768" y="239.319" width="9.635" height=".75" id="eltfdbjm0r81q" class="animable" style="transform-origin: 256.586px 239.694px;"></rect><rect x="251.768" y="241.658" width="16.488" height=".75" id="elnjjaubsqbo" class="animable" style="transform-origin: 260.012px 242.033px;"></rect><rect x="251.768" y="243.996" width="16.488" height=".75" id="el1dc9tm7kchb" class="animable" style="transform-origin: 260.012px 244.371px;"></rect><rect x="251.768" y="246.335" width="16.488" height=".75" id="elyhuoq0cf3fs" class="animable" style="transform-origin: 260.012px 246.71px;"></rect><rect x="251.768" y="248.674" width="16.488" height=".75" id="els9jztw3j7ff" class="animable" style="transform-origin: 260.012px 249.049px;"></rect><rect x="251.768" y="251.012" width="8.244" height=".75" id="elleaioqt7g2h" class="animable" style="transform-origin: 255.89px 251.387px;"></rect></g></g></g><g id="freepik--Tab--inject-2" class="animable" style="transform-origin: 254.829px 195.548px;"><g id="el9b3hmvkyhq6" class="animable" style="transform-origin: 254.829px 195.548px;"><rect x="182.297" y="168.797" width="145.064" height="53.503" style="fill: #00FF88; transform-origin: 254.829px 195.548px;" id="elr95ksxplsh" class="animable"></rect><g id="elg21dq2bp6yf"><rect x="182.297" y="168.797" width="145.064" height="53.503" style="fill: rgb(255, 255, 255); opacity: 0.7; transform-origin: 254.829px 195.548px;" class="animable" id="elj90dnj4mujk"></rect></g><rect x="182.297" y="168.797" width="145.064" height="9.928" style="fill: #00FF88; transform-origin: 254.829px 173.761px;" id="elgdz2qkhf5ua" class="animable"></rect><path d="M325.102,176.696h-7.95v-7.039h7.95v7.039Zm-7.2-.75h6.45v-5.539h-6.45v5.539Z" id="el4dt63g0q2mv" class="animable" style="transform-origin: 321.127px 173.176px;"></path><g id="el77663v59mkq" class="animable" style="transform-origin: 321.178px 173.228px;"><g id="el9oqo8l2hxqi"><rect x="318.533" y="172.853" width="5.083" height=".751" class="animable" style="transform-origin: 321.075px 173.228px; transform: rotate(-45.053deg);" id="el4h4ztjaeqy7"></rect></g><g id="el953m1v97ld"><rect x="320.806" y="170.61" width=".751" height="5.237" class="animable" style="transform-origin: 321.181px 173.229px; transform: rotate(-46.659deg);" id="elhdqf1czci3t"></rect></g></g><g id="elbwrwteatob9" class="animable" style="transform-origin: 254.829px 202.259px;"><rect x="190.278" y="196.927" width="3.453" height="10.568" style="fill: #00FF88; transform-origin: 192.004px 202.211px;" id="elqgisnssmodh" class="animable"></rect><g id="elyl522vwcb0n" class="animable" style="transform-origin: 254.829px 202.259px;"><path d="M321.636,209.344H188.022v-14.17h133.613v14.17Zm-132.863-.75h132.113v-12.67H188.772v12.67Z" id="elro7m3mqc9j" class="animable" style="transform-origin: 254.829px 202.259px;"></path><rect x="196.138" y="196.927" width="3.453" height="10.568" style="fill: #00FF88; transform-origin: 197.864px 202.211px;" id="elqobm8o2d9m" class="animable"></rect><rect x="201.997" y="196.927" width="3.453" height="10.568" style="fill: #00FF88; transform-origin: 203.724px 202.211px;" id="el6jyldnsx0l" class="animable"></rect><rect x="207.856" y="196.927" width="3.453" height="10.568" style="fill: #00FF88; transform-origin: 209.582px 202.211px;" id="eleyvb9xukadv" class="animable"></rect><rect x="213.716" y="196.927" width="3.453" height="10.568" style="fill: #00FF88; transform-origin: 215.442px 202.211px;" id="el7rsnvjtuuiv" class="animable"></rect><rect x="219.575" y="196.927" width="3.453" height="10.568" style="fill: #00FF88; transform-origin: 221.301px 202.211px;" id="eligtmd3x3xx" class="animable"></rect><rect x="225.435" y="196.927" width="3.453" height="10.568" style="fill: #00FF88; transform-origin: 227.161px 202.211px;" id="elxmuyf3qp34o" class="animable"></rect><rect x="231.294" y="196.927" width="3.453" height="10.568" style="fill: #00FF88; transform-origin: 233.02px 202.211px;" id="elorb583adwmq" class="animable"></rect><rect x="237.154" y="196.927" width="3.453" height="10.568" style="fill: #00FF88; transform-origin: 238.88px 202.211px;" id="elipkjcifappk" class="animable"></rect><rect x="243.013" y="196.927" width="3.453" height="10.568" style="fill: #00FF88; transform-origin: 244.739px 202.211px;" id="elktm99ib1t7g" class="animable"></rect><rect x="248.872" y="196.927" width="3.453" height="10.568" style="fill: #00FF88; transform-origin: 250.599px 202.211px;" id="el5tb4zwqeeij" class="animable"></rect><rect x="254.732" y="196.927" width="3.453" height="10.568" style="fill: #00FF88; transform-origin: 256.459px 202.211px;" id="el9hu1gut2sl" class="animable"></rect><rect x="190.56" y="197.676" width="128.067" height=".75" style="fill: rgb(255, 255, 255); transform-origin: 254.594px 198.051px;" id="elt53qfmvt7" class="animable"></rect></g></g><g id="elv1s25i13cm"><polygon points="317.526 176.321 317.526 177.046 325.424 177.046 325.424 170.032 324.727 170.032 324.727 176.321 317.526 176.321" style="opacity: 0.3; transform-origin: 321.475px 173.539px;" class="animable" id="elnnp2piiomf"></polygon></g><g id="elctmo1877y7"><polygon points="190.278 208.969 190.278 210.944 322.872 210.944 322.872 195.549 321.261 195.549 321.261 208.969 190.278 208.969" style="opacity: 0.3; transform-origin: 256.575px 203.246px;" class="animable" id="eld699jo5wq6b"></polygon></g></g></g><g id="freepik--Mouse--inject-2" class="animable" style="transform-origin: 421.347px 428.622px;"><g id="ely3brid9r6t8" class="animable" style="transform-origin: 421.347px 428.622px;"><path d="M414.061,421.256h14.573c7.601,0,13.772,6.171,13.772,13.772v.96h-42.118v-.96c0-7.601,6.171-13.772,13.772-13.772Z" style="fill: #00FF88; transform-origin: 421.347px 428.622px;" id="elqn72wfguntq" class="animable"></path><g id="elzvy6tf2dipf"><path d="M441.853,434.668h-40.919c-.207,0-.375-.168-.375-.375s.168-.375,.375-.375h40.919c.207,0,.375,.168,.375,.375s-.168,.375-.375,.375Z" style="opacity: 0.2; transform-origin: 421.393px 434.293px;" class="animable" id="elqnttnxjowi"></path></g></g></g><g id="freepik--Keyboard--inject-2" class="animable" style="transform-origin: 202.786px 423.424px;"><g id="elqu61vf00c2p" class="animable" style="transform-origin: 202.786px 423.424px;"><rect x="46.822" y="413.89" width="19.372" height="6.621" style="fill: #00FF88; transform-origin: 56.508px 417.2px;" id="elp67l824u4oe" class="animable"></rect><g id="el8ti6qvjgxww"><rect x="46.822" y="413.89" width="19.372" height="6.621" style="opacity: 0.4; transform-origin: 56.508px 417.2px;" class="animable" id="el4tuwa9vanm3"></rect></g><rect x="70.876" y="413.89" width="13.501" height="6.621" style="fill: #00FF88; transform-origin: 77.6265px 417.2px;" id="elghlpvq6elju" class="animable"></rect><g id="el0604fm9kmu7e"><rect x="70.876" y="413.89" width="13.501" height="6.621" style="opacity: 0.4; transform-origin: 77.6265px 417.2px;" class="animable" id="elqxwxdknknkl"></rect></g><rect x="89.116" y="413.89" width="13.501" height="6.621" style="fill: #00FF88; transform-origin: 95.8665px 417.2px;" id="elum5cksq7cin" class="animable"></rect><g id="elneem2fxutta"><rect x="89.116" y="413.89" width="13.501" height="6.621" style="opacity: 0.4; transform-origin: 95.8665px 417.2px;" class="animable" id="elzd7nyzfbh59"></rect></g><rect x="107.356" y="413.89" width="13.501" height="6.621" style="fill: #00FF88; transform-origin: 114.106px 417.2px;" id="el0m85sao3vz3" class="animable"></rect><g id="eln41umz1xuo"><rect x="107.356" y="413.89" width="13.501" height="6.621" style="opacity: 0.4; transform-origin: 114.106px 417.2px;" class="animable" id="el5gvr9j7lceb"></rect></g><rect x="197.462" y="413.89" width="10.374" height="6.621" style="fill: #00FF88; transform-origin: 202.649px 417.2px;" id="eldekvlm1ri3g" class="animable"></rect><g id="el8ybspj3r539"><rect x="197.462" y="413.89" width="10.374" height="6.621" style="opacity: 0.4; transform-origin: 202.649px 417.2px;" class="animable" id="el6db2z28syvi"></rect></g><rect x="212.812" y="413.89" width="10.374" height="6.621" style="fill: #00FF88; transform-origin: 217.999px 417.2px;" id="elhhfcvfkzl7s" class="animable"></rect><g id="el3wo9huxeikq"><rect x="212.812" y="413.89" width="10.374" height="6.621" style="opacity: 0.4; transform-origin: 217.999px 417.2px;" class="animable" id="ele4yt23ck7og"></rect></g><rect x="228.162" y="413.89" width="10.374" height="6.621" style="fill: #00FF88; transform-origin: 233.349px 417.2px;" id="elxato2b34s1k" class="animable"></rect><g id="el78oc6voq9oo"><rect x="228.162" y="413.89" width="10.374" height="6.621" style="opacity: 0.4; transform-origin: 233.349px 417.2px;" class="animable" id="elyn2pmv3n75e"></rect></g><rect x="243.511" y="413.89" width="10.374" height="6.621" style="fill: #00FF88; transform-origin: 248.698px 417.2px;" id="elj6nymtwisva" class="animable"></rect><g id="el9nq0oc400gl"><rect x="243.511" y="413.89" width="10.374" height="6.621" style="opacity: 0.4; transform-origin: 248.698px 417.2px;" class="animable" id="el91dkrzowq4"></rect></g><rect x="285.103" y="413.89" width="10.374" height="6.621" style="fill: #00FF88; transform-origin: 290.29px 417.2px;" id="elp5ekcqxw71j" class="animable"></rect><g id="eln1wqd9x9dj"><rect x="285.103" y="413.89" width="10.374" height="6.621" style="opacity: 0.4; transform-origin: 290.29px 417.2px;" class="animable" id="eluuex7jwdpu"></rect></g><rect x="300.234" y="413.89" width="10.374" height="6.621" style="fill: #00FF88; transform-origin: 305.421px 417.2px;" id="el1xs911krc23" class="animable"></rect><g id="elxjmta6s2zx"><rect x="300.234" y="413.89" width="10.374" height="6.621" style="opacity: 0.4; transform-origin: 305.421px 417.2px;" class="animable" id="ellbwcgvu5vyl"></rect></g><rect x="315.365" y="413.89" width="10.374" height="6.621" style="fill: #00FF88; transform-origin: 320.552px 417.2px;" id="elrzusft0zaed" class="animable"></rect><g id="elxnb4yl1gdkb"><rect x="315.365" y="413.89" width="10.374" height="6.621" style="opacity: 0.4; transform-origin: 320.552px 417.2px;" class="animable" id="elw378pzzx63"></rect></g><rect x="330.496" y="413.89" width="28.056" height="6.621" style="fill: #00FF88; transform-origin: 344.524px 417.2px;" id="eljquv7ikh0e" class="animable"></rect><g id="elh5fgxoh3vgq"><rect x="330.496" y="413.89" width="28.056" height="6.621" style="opacity: 0.4; transform-origin: 344.524px 417.2px;" class="animable" id="elzsdmkj4w42q"></rect></g><rect x="258.861" y="413.89" width="20.202" height="6.621" style="fill: #00FF88; transform-origin: 268.962px 417.2px;" id="elgpwpj2ch8xj" class="animable"></rect><g id="elbkq4m25emhc"><rect x="258.861" y="413.89" width="20.202" height="6.621" style="opacity: 0.4; transform-origin: 268.962px 417.2px;" class="animable" id="elhyd53xqql7q"></rect></g><rect x="125.596" y="413.89" width="66.398" height="6.621" style="fill: #00FF88; transform-origin: 158.795px 417.2px;" id="elx3stunj0srp" class="animable"></rect><g id="elreflztbkjis"><rect x="125.596" y="413.89" width="66.398" height="6.621" style="opacity: 0.4; transform-origin: 158.795px 417.2px;" class="animable" id="el2to2lshx6il"></rect></g><rect x="41.677" y="419.257" width="322.218" height="13.702" style="fill: #00FF88; transform-origin: 202.786px 426.108px;" id="el96hek4j0847" class="animable"></rect><g id="elwpyujwqwzxa"><rect x="41.677" y="419.257" width="322.218" height="13.702" style="opacity: 0.3; transform-origin: 202.786px 426.108px;" class="animable" id="elpf7byc4cvoh"></rect></g><g id="el5fjhqnmnqga"><rect x="42.778" y="428.247" width="320.38" height=".75" style="opacity: 0.2; transform-origin: 202.968px 428.622px;" class="animable" id="el2lz1winc6m1"></rect></g></g></g><defs>     <filter id="active" height="200%">         <feMorphology in="SourceAlpha" result="DILATED" operator="dilate" radius="2"></feMorphology>                <feFlood flood-color="#32DFEC" flood-opacity="1" result="PINK"></feFlood>        <feComposite in="PINK" in2="DILATED" operator="in" result="OUTLINE"></feComposite>        <feMerge>            <feMergeNode in="OUTLINE"></feMergeNode>            <feMergeNode in="SourceGraphic"></feMergeNode>        </feMerge>    </filter>    <filter id="hover" height="200%">        <feMorphology in="SourceAlpha" result="DILATED" operator="dilate" radius="2"></feMorphology>                <feFlood flood-color="#ff0000" flood-opacity="0.5" result="PINK"></feFlood>        <feComposite in="PINK" in2="DILATED" operator="in" result="OUTLINE"></feComposite>        <feMerge>            <feMergeNode in="OUTLINE"></feMergeNode>            <feMergeNode in="SourceGraphic"></feMergeNode>        </feMerge>            <feColorMatrix type="matrix" values="0   0   0   0   0                0   1   0   0   0                0   0   0   0   0                0   0   0   1   0 "></feColorMatrix>    </filter></defs></svg>